<?xml version="1.0" ?><!DOCTYPE svg  PUBLIC '-//W3C//DTD SVG 1.1//EN'  'http://www.w3.org/Graphics/SVG/1.1/DTD/svg11.dtd'><svg enable-background="new 0 0 500 500" height="500px" id="Layer_1" version="1.1" viewBox="0 0 500 500" width="500px" xml:space="preserve" xmlns="http://www.w3.org/2000/svg" xmlns:xlink="http://www.w3.org/1999/xlink"><path clip-rule="evenodd" d="M104.632,154.602v45.429c0,12.537,10.177,22.713,22.713,22.713  c12.539,0,22.715-10.177,22.715-22.713v-45.429c0-12.536-10.177-22.713-22.715-22.713  C114.809,131.889,104.632,142.065,104.632,154.602z M186.401,154.602v45.429c0,12.537,10.177,22.713,22.716,22.713  c12.536,0,22.713-10.177,22.713-22.713v-45.429c0-12.536-10.177-22.713-22.713-22.713  C196.578,131.889,186.401,142.065,186.401,154.602z M268.172,154.602v45.429c0,12.537,10.176,22.713,22.712,22.713  s22.715-10.177,22.715-22.713v-45.429c0-12.536-10.179-22.713-22.715-22.713S268.172,142.065,268.172,154.602z M349.938,154.602  v45.429c0,12.537,10.18,22.713,22.717,22.713c12.535,0,22.711-10.177,22.711-22.713v-45.429c0-12.536-10.176-22.713-22.711-22.713  C360.118,131.889,349.938,142.065,349.938,154.602z M31.949,431.711c0,20.078,16.264,36.34,36.34,36.34h363.421  c20.078,0,36.34-16.262,36.34-36.34V68.29c0-20.077-16.262-36.34-36.34-36.34H68.29c-20.077,0-36.34,16.264-36.34,36.34V431.711z   M97.367,104.632h305.267c11.084,0,19.99,8.904,19.99,19.989v141.732c0,11.08-8.906,19.987-19.99,19.987h-25.436v34.525  c0,11.081-8.911,19.986-19.992,19.986h-52.693v34.526c0,11.081-8.907,19.987-19.991,19.987h-69.045  c-11.086,0-19.99-8.906-19.99-19.987v-34.526h-52.693c-11.086,0-19.991-8.905-19.991-19.986v-34.525H97.367  c-11.086,0-19.991-8.907-19.991-19.987V124.621C77.375,113.537,86.28,104.632,97.367,104.632z" fill="#FFFFFF" fill-rule="evenodd"/></svg>